<svg xmlns="http://www.w3.org/2000/svg" viewBox="0 0 272.304 259.3916"><defs><style>.cls-1{fill:#34cacb;}</style></defs><g id="Layer_2" data-name="Layer 2"><g id="Layer_1-2" data-name="Layer 1"><path class="cls-1" d="M213.4776,231.611a124.8862,124.8862,0,0,0,47.079-86.5833h-4.6a120.3078,120.3078,0,0,1-45.0813,82.8072Z"></path><path class="cls-1" d="M64.3825,235.7591l2.8592-3.5872a120.418,120.418,0,0,1-50.8941-87.1442h-4.6A124.9937,124.9937,0,0,0,64.3825,235.7591Z"></path><path class="cls-1" d="M29.94,127.8427,6.0562,125.3816l-.8233,7.9875L0,132.8291l2.2508-21.8369,5.2329.54-.8271,8.0263L30.54,122.02Z"></path><path class="cls-1" d="M32.724,108.1194,5.435,97.5336l2.1173-5.4577L18.91,96.4821l3.9915-10.289L11.5438,81.7869l2.1315-5.495,27.289,10.5858-2.1315,5.495L27.8066,88.0948l-3.9915,10.289,11.0262,4.2779Z"></path><path class="cls-1" d="M49.4186,74.5229a15.3308,15.3308,0,0,1-1.4379,1.6422,6.7459,6.7459,0,0,1-2.0524,1.4081,4.9157,4.9157,0,0,1-2.6483.352,7.1842,7.1842,0,0,1-3.28-1.52L26.8732,66.6816a7.8113,7.8113,0,0,1-2.253-2.4075,5.2442,5.2442,0,0,1-.7111-2.4954,6.2152,6.2152,0,0,1,.4366-2.3836,9.0785,9.0785,0,0,1,1.1351-2.0643q1.766-2.3829,3.1831-4.1631t2.58-3.1845q1.1624-1.4028,2.1844-2.5163l3.9412,2.919L30.8711,59.158a2.7788,2.7788,0,0,0-.6533,1.8794A2.299,2.299,0,0,0,31.2794,62.66L34.6806,65.18l7.1526-9.124L45.5521,58.81l-6.6443,9.5015L42.15,70.7133a3.1817,3.1817,0,0,0,1.4872.6832,1.7635,1.7635,0,0,0,1.1772-.26,3.3594,3.3594,0,0,0,.8931-.8412l6.569-8.8675,3.9411,2.92q-.8771,1.517-2.0412,3.2875t-2.384,3.55Q50.5717,72.9649,49.4186,74.5229Z"></path><path class="cls-1" d="M72.1564,50.3173,56.8042,25.3958l10.5076-6.4735a13.1208,13.1208,0,0,1,2.6516-1.238,6.614,6.614,0,0,1,3.0291-.2864,7.0082,7.0082,0,0,1,3.3046,1.5185,15.268,15.268,0,0,1,3.4575,4.1406,15.62,15.62,0,0,1,2.1647,4.9849,7.58,7.58,0,0,1-.0619,3.7081,6.36,6.36,0,0,1-1.51,2.6028,11.4138,11.4138,0,0,1-2.1706,1.7556q-.6065.3736-1.4458.82t-1.7265.8547q-.8877.4073-1.6463.7592t-1.2384.5534l5.02,8.15ZM69.6927,35.1568l4.9506-3.05a3.0688,3.0688,0,0,0,1.24-1.3439,2.9211,2.9211,0,0,0,.0962-1.9182,9.6419,9.6419,0,0,0-1.2216-2.6625,8.6358,8.6358,0,0,0-1.8033-2.21,3.0005,3.0005,0,0,0-1.7083-.7354,2.818,2.818,0,0,0-1.6463.4564l-5.0517,3.1115Z"></path><path class="cls-1" d="M95.8712,36.6991,87.7976,8.5647l5.6267-1.6154L96.7848,18.66l10.6079-3.0443L104.0321,3.905l5.6651-1.6258,8.0736,28.1358-5.6647,1.6259L108.8436,20.672,98.2362,23.7163l3.2621,11.3689Z"></path><path class="cls-1" d="M132.5353,29.5052l-.1439-8.8586L123.24.3818l6.09-.0984L135.34,14.625l5.5-14.5295L146.6924,0l-8.4477,20.5511.144,8.8586Z"></path><path class="cls-1" d="M161.7559,32.818q-1.113-.28-2.2676-.6325-1.1561-.3511-2.33-.789t-2.2049-.8815q-1.031-.4431-1.8548-.895l1.1291-4.4882q1.122.405,2.56.8472,1.438.4454,3.0015.8786t2.982.79a11.3743,11.3743,0,0,0,2.5753.3834,3.1872,3.1872,0,0,0,1.8525-.4714,2.5781,2.5781,0,0,0,1.0147-1.6005l.2606-1.0366a2.5434,2.5434,0,0,0-.2606-2.124,3.1842,3.1842,0,0,0-1.96-1.2082l-2.4167-.6071q-4.0659-1.0248-5.7844-3.3531t-.6369-6.6256l.3475-1.3813q1.0427-4.1413,3.9035-5.4607t7.2723-.21q1.5723.396,3.0875.9412t2.9,1.1172q1.385.5728,2.3627,1.0635l-1.1291,4.4882q-1.7362-.5593-3.8737-1.22T168.307,9.22a10.0824,10.0824,0,0,0-2.3832-.3356,2.8,2.8,0,0,0-1.79.5489,3.216,3.216,0,0,0-1.0292,1.8213l-.1931.7666a2.6276,2.6276,0,0,0,.3031,2.3612,4.16,4.16,0,0,0,2.3291,1.28l2.8.704a8.8382,8.8382,0,0,1,4.0019,2.0062,6.1988,6.1988,0,0,1,1.8414,3.2174,8.5558,8.5558,0,0,1-.1208,3.9661l-.4057,1.6109a9.06,9.06,0,0,1-2.53,4.788,6.3558,6.3558,0,0,1-4.0556,1.5289A19.38,19.38,0,0,1,161.7559,32.818Z"></path><path class="cls-1" d="M178.6046,38.2548l12.45-26.4906,5.2981,2.4909-12.45,26.4907Z"></path><path class="cls-1" d="M200.2722,51.3018a21.4754,21.4754,0,0,1-3.8416-3.6395,7.8592,7.8592,0,0,1-1.7161-3.9855,9.79,9.79,0,0,1,.9054-4.9506,31.5623,31.5623,0,0,1,4.02-6.5332,31.0744,31.0744,0,0,1,5.2445-5.6278,10.2308,10.2308,0,0,1,4.5508-2.2314,7.8007,7.8007,0,0,1,4.3077.5415,20.7392,20.7392,0,0,1,4.5479,2.71,20.8385,20.8385,0,0,1,3.83,3.6544,7.8066,7.8066,0,0,1,1.6758,4.0064,10.0848,10.0848,0,0,1-.9442,4.97,31.9047,31.9047,0,0,1-4.0325,6.5481,31.63,31.63,0,0,1-5.2161,5.6247A9.9049,9.9049,0,0,1,209.0927,54.6a7.7281,7.7281,0,0,1-4.2846-.5728A21.4567,21.4567,0,0,1,200.2722,51.3018Zm3.183-4.19a9.4732,9.4732,0,0,0,2.6013,1.4811,3.5919,3.5919,0,0,0,2.3456.0179,7.2842,7.2842,0,0,0,2.55-1.6884,30.5165,30.5165,0,0,0,3.207-3.6992,32.1469,32.1469,0,0,0,2.8109-4.2227,7.3164,7.3164,0,0,0,.9561-2.925,3.4023,3.4023,0,0,0-.6705-2.2239,10.5365,10.5365,0,0,0-2.1471-2.0778,10.1462,10.1462,0,0,0-2.5141-1.4633,3.5781,3.5781,0,0,0-2.3537-.0731,7.0521,7.0521,0,0,0-2.6088,1.6676,30.3455,30.3455,0,0,0-3.3308,3.8289,32.4709,32.4709,0,0,0-2.7191,4.0691,6.891,6.891,0,0,0-.9435,2.9086,3.6829,3.6829,0,0,0,.678,2.2791A9.673,9.673,0,0,0,203.4552,47.1119Z"></path><path class="cls-1" d="M223.5715,74.6019l19.5018-11.3943a7.8188,7.8188,0,0,1,3.1-1.1231,5.2343,5.2343,0,0,1,2.5737.3281,6.188,6.188,0,0,1,2.02,1.34,9.0126,9.0126,0,0,1,1.4506,1.8555q.7182,1.2283,1.769,3.0667t2.1554,3.9632q1.1041,2.1255,2.0173,4.1585l-4.2353,2.4746-5.5666-9.53a2.2008,2.2008,0,0,0-3.2868-.92l-4.3032,2.5148L246.34,81.502l-3.9959,2.3343-6.1193-9.8474-9.7,5.6665Z"></path><path class="cls-1" d="M235.6325,97.9617l27.6168-9.7,1.94,5.5234-27.6168,9.7Z"></path><path class="cls-1" d="M240.0342,109.6349l17.13,7.625-4.5061,3.6291-11.7716-4.8239Zm2.3851,17.9975,26.6167-21.9607.8517,6.43-26.616,21.9607ZM254.8,122.6l4.5113-3.59,12.1453,4.9342.8472,6.393Z"></path><path class="cls-1" d="M75.7467,231.0153l10.5985,5.633-1.1881,2.2359-7.5384-4.0071-.7488,1.411,6.695,3.5589-1.22,2.2956-6.695-3.5589-.7421,1.3961,7.5385,4.0057-1.1888,2.2358-10.5985-5.6329Z"></path><path class="cls-1" d="M86.2311,245.5442l2.9712.2356a1.6268,1.6268,0,0,0,.2864.6809,3.2964,3.2964,0,0,0,.5631.622,5.269,5.269,0,0,0,.7182.5273,5.8239,5.8239,0,0,0,.7369.3886c.2535.1074.5377.2185.8509.3311a6.2607,6.2607,0,0,0,.9151.2566,2.8,2.8,0,0,0,.8055.05.609.609,0,0,0,.5026-.2722.5.5,0,0,0,.0276-.4982,1.59,1.59,0,0,0-.3938-.4855,4.4664,4.4664,0,0,0-.6563-.4676q-.3825-.2259-.7793-.4311-.5214-.2886-1.1351-.5944a13.28,13.28,0,0,1-1.1918-.6689,11.4056,11.4056,0,0,1-1.0836-.7749,3.9161,3.9161,0,0,1-.83-.9047,2.6677,2.6677,0,0,1-.4087-1.0732,2.6884,2.6884,0,0,1,1.2164-2.5372,4.0128,4.0128,0,0,1,1.631-.5355,6.8424,6.8424,0,0,1,1.8966.0642,9.7471,9.7471,0,0,1,1.8533.4944,12.3783,12.3783,0,0,1,1.6586.7824,8.45,8.45,0,0,1,1.5453,1.1038,5.1439,5.1439,0,0,1,1.0964,1.3886,2.7687,2.7687,0,0,1,.3154,1.6371l-2.887-.4587a.9553.9553,0,0,0-.1431-.6086,2.328,2.328,0,0,0-.4788-.5541,4.3929,4.3929,0,0,0-.6705-.4728c-.2469-.141-.4848-.2685-.7145-.38a6.138,6.138,0,0,0-.745-.3,4.1291,4.1291,0,0,0-.8047-.1879,1.9627,1.9627,0,0,0-.6981.0269.63.63,0,0,0-.4408.3318.5622.5622,0,0,0,.0261.537,1.8253,1.8253,0,0,0,.4632.5034,6.197,6.197,0,0,0,.7338.487q.4185.2406.8174.446.5247.273,1.12.5884.593.3166,1.1523.6824a9.4189,9.4189,0,0,1,1.0374.7839,3.8077,3.8077,0,0,1,.78.9225,2.5956,2.5956,0,0,1,.1752,2.3649,2.354,2.354,0,0,1-1.0463,1.2574,3.9871,3.9871,0,0,1-1.6743.4923,7.4927,7.4927,0,0,1-2.0323-.1343,13.1045,13.1045,0,0,1-2.14-.6115,15.0312,15.0312,0,0,1-1.6251-.7346,7.712,7.712,0,0,1-1.5184-1.0389,5.97,5.97,0,0,1-1.1829-1.4111A4.6184,4.6184,0,0,1,86.2311,245.5442Z"></path><path class="cls-1" d="M116.1964,246.4018l-.5847,2.4634-4.8723-1.1567-1.9211,8.0836-3.371-.8009,1.92-8.0837-4.8723-1.1575.5847-2.4634Z"></path><path class="cls-1" d="M119.5711,247.0477l6.6794.6257a9.4568,9.4568,0,0,1,2.9041.6981,6.3344,6.3344,0,0,1,2.0368,1.36,4.8782,4.8782,0,0,1,1.144,1.8481,5.11,5.11,0,0,1,.2461,2.1471,5.0431,5.0431,0,0,1-.64,2.0569,4.8742,4.8742,0,0,1-1.4737,1.5938,6.4347,6.4347,0,0,1-2.2537.9583,9.3472,9.3472,0,0,1-2.9758.1485l-6.6793-.6258Zm2.6745,8.6139,3.1338.2924a4.0606,4.0606,0,0,0,1.5192-.1134,3.2146,3.2146,0,0,0,1.1313-.5683,2.77,2.77,0,0,0,.7287-.87,2.5658,2.5658,0,0,0,.1909-2.0472,2.767,2.767,0,0,0-.5541-.99,3.3352,3.3352,0,0,0-1.0046-.7772,3.9421,3.9421,0,0,0-1.4715-.4019l-3.1338-.2931Z"></path><path class="cls-1" d="M136.5924,256.3671a1.8661,1.8661,0,0,1,.6026.1127,1.7969,1.7969,0,0,1,.543.3065,1.5343,1.5343,0,0,1,.3893.4833,1.4238,1.4238,0,0,1-.0224,1.2745,1.5317,1.5317,0,0,1-.4057.4684,1.7978,1.7978,0,0,1-.5541.2871,1.8816,1.8816,0,0,1-.6056.0917,1.8593,1.8593,0,0,1-.6026-.1126,1.8094,1.8094,0,0,1-.543-.3072,1.6092,1.6092,0,0,1-.3967-.4826,1.3579,1.3579,0,0,1,.0223-1.2745,1.6306,1.6306,0,0,1,.414-.4684,1.8051,1.8051,0,0,1,.5533-.2879A1.88,1.88,0,0,1,136.5924,256.3671Z"></path><path class="cls-1" d="M156.3232,246.81a9.8049,9.8049,0,0,1,1.7929.0059,6.6428,6.6428,0,0,1,1.7228.3871,4.5535,4.5535,0,0,1,1.41.8361,2.7931,2.7931,0,0,1,.8472,1.36,2.9888,2.9888,0,0,1-.0306,2.1091,3.6818,3.6818,0,0,1-1.2514,1.4677,6.5424,6.5424,0,0,1-1.4536.7585q-.8871.3478-1.7593.65-.87.302-1.5543.5675a1.6863,1.6863,0,0,0-.8367.5295l7.4833-1.12.3848,2.5715-11.7605,1.76-.2759-1.8488a2.4812,2.4812,0,0,1,.2014-1.55,3.4112,3.4112,0,0,1,.965-1.1239,6.5088,6.5088,0,0,1,1.4678-.83q.839-.3478,1.7078-.6675.3491-.1386.9539-.34a8.9963,8.9963,0,0,0,1.1649-.484,3.7578,3.7578,0,0,0,.9472-.6578.941.941,0,0,0,.3147-.8457.8769.8769,0,0,0-.3468-.6011,1.7558,1.7558,0,0,0-.7115-.2976,3.8735,3.8735,0,0,0-.9248-.0582,7.3731,7.3731,0,0,0-1.0031.1156,5.7749,5.7749,0,0,0-.8554.1962,4.1051,4.1051,0,0,0-.786.3326,2.5532,2.5532,0,0,0-.6131.47,1.3945,1.3945,0,0,0-.3475.6272l-3.0235-.1141a4.8472,4.8472,0,0,1,.845-1.7676,5.29,5.29,0,0,1,1.3946-1.2566,7.126,7.126,0,0,1,1.8265-.7973A11.0707,11.0707,0,0,1,156.3232,246.81Z"></path><path class="cls-1" d="M180.1439,246.8232a4.6824,4.6824,0,0,1,.0887,2.5141,5.5169,5.5169,0,0,1-1.0754,2.1292,7.3782,7.3782,0,0,1-1.92,1.649,10.2251,10.2251,0,0,1-5.08,1.4864,7.4907,7.4907,0,0,1-2.5141-.355,5.4743,5.4743,0,0,1-2.0606-1.212,5.1029,5.1029,0,0,1-1.3671-4.6813,5.5513,5.5513,0,0,1,1.08-2.139,7.4076,7.4076,0,0,1,1.9249-1.6608,10.2437,10.2437,0,0,1,5.0811-1.4849,7.4011,7.4011,0,0,1,2.5059.3565A5.512,5.512,0,0,1,178.86,244.64,4.7239,4.7239,0,0,1,180.1439,246.8232Zm-3.0667.8957a2.6189,2.6189,0,0,0-.71-1.2082,3.071,3.071,0,0,0-1.1418-.6757,4.1444,4.1444,0,0,0-1.4006-.2021,5.7146,5.7146,0,0,0-2.8378.83,4.1409,4.1409,0,0,0-1.0717.924,3.08,3.08,0,0,0-.5981,1.1843,2.6156,2.6156,0,0,0,.0537,1.4007,2.6689,2.6689,0,0,0,.7018,1.2111,2.9837,2.9837,0,0,0,1.1157.6742,3.9424,3.9424,0,0,0,1.3655.1932,5.5865,5.5865,0,0,0,1.4334-.2238,5.8552,5.8552,0,0,0,1.388-.6093,4.3118,4.3118,0,0,0,1.1015-.933,3.1865,3.1865,0,0,0,.63-1.1843A2.4549,2.4549,0,0,0,177.0772,247.7189Z"></path><path class="cls-1" d="M184.3718,239.2415l2.45-1.0233,4.1825,10.0213-3.0362,1.2671-2.2985-5.5047-.2432.6548-2.67-.7824Z"></path><path class="cls-1" d="M200.6622,231.2174l.983,1.8056-1.7862,10.9535-3.365,1.8317,1.6265-10.2487-6.4235,3.4955-1.2425-2.2829Z"></path><path class="cls-1" d="M77.6423,107.2536l-.2088-22.3858,9.5514-.09a9.6692,9.6692,0,0,1,2.7155.3363A5.1571,5.1571,0,0,1,91.85,86.3154a5.642,5.642,0,0,1,1.423,2.2918,11.369,11.369,0,0,1,.53,3.641,10.64,10.64,0,0,1-.2178,2.4119,6.4491,6.4491,0,0,1-.6324,1.7384A4.5568,4.5568,0,0,1,92,97.5978a7.52,7.52,0,0,1-1.1821.8546l3.9669,8.6408-5.9343.056-3.2054-7.684c-.18.0015-.367.003-.5571.0053-.1917.0014-.3767.0029-.5579.0052s-.3662.003-.5571.0052-.3766.003-.5571.0052l.0716,7.713ZM83.373,94.8458l2.6513-.0254a2.3832,2.3832,0,0,0,.842-.1432,1.4876,1.4876,0,0,0,.6138-.4422,1.9,1.9,0,0,0,.3692-.7719,4.6235,4.6235,0,0,0,.11-1.1307,4.428,4.428,0,0,0-.1313-1.1134,1.544,1.544,0,0,0-.3833-.7048,1.5635,1.5635,0,0,0-.6213-.3707,2.6865,2.6865,0,0,0-.8442-.1126l-2.6513.0254Z"></path><path class="cls-1" d="M105.8446,107.1708a12.0233,12.0233,0,0,1-1.734-.1343,5.9492,5.9492,0,0,1-1.9644-.6443,4.1268,4.1268,0,0,1-1.5967-1.5669,5.7741,5.7741,0,0,1-.6593-2.9318l-.1089-11.69a6.3177,6.3177,0,0,1,.487-2.7161,4.49,4.49,0,0,1,1.3089-1.7154,5.076,5.076,0,0,1,1.8-.8912,7.7747,7.7747,0,0,1,1.9264-.2737q2.53-.0235,4.3539.0351t3.1652.1357q1.3413.0783,2.3671.1894l.0463,4.9417-8.074.0753a1.728,1.728,0,0,0-1.1418.3416,1.23,1.23,0,0,0-.3826.9978l.0179,1.8682,8.106.226.0433,4.64-8.1009.3759.0157,1.6877a2.06,2.06,0,0,0,.1738.8875,1.0979,1.0979,0,0,0,.4721.5072,1.3486,1.3486,0,0,0,.6645.16l8.3148-.0775.0463,4.9408q-1.2943.1936-2.95.3289t-3.3725.2126Q107.3519,107.1563,105.8446,107.1708Z"></path><path class="cls-1" d="M121.1483,106.8479,120.94,84.4621l9.8214-.0918a11.3562,11.3562,0,0,1,2.3522.2342,5.3326,5.3326,0,0,1,2.2255,1.0337,5.504,5.504,0,0,1,1.6489,2.3955,12.2717,12.2717,0,0,1,.6578,4.2876,12.9382,12.9382,0,0,1-.5616,4.3591,5.8345,5.8345,0,0,1-1.5438,2.485,5.1216,5.1216,0,0,1-2.0837,1.1344,8.9747,8.9747,0,0,1-2.212.3065q-.5728.0055-1.1911-.0485t-1.2067-.1551q-.5872-.1-1.0859-.2006t-.8293-.1581l.0627,6.7494Zm5.74-11.4435,3.3732-.0313a1.3188,1.3188,0,0,0,.9464-.34,1.8426,1.8426,0,0,0,.4721-.9837,8.03,8.03,0,0,0,.1208-1.6132,6.3273,6.3273,0,0,0-.18-1.5654,1.9924,1.9924,0,0,0-.5064-.9442,1.2544,1.2544,0,0,0-.9069-.3073l-3.3732.0314Z"></path><path class="cls-1" d="M140.0691,106.6711l6.4191-22.4469,7.2916-.0687,6.8375,22.3247-6.0566.0559-.9367-3.5462-6.7189.0626-.84,3.5627Zm8.1426-8.8742,4.0072-.0373L150.12,89.1621Z"></path><path class="cls-1" d="M165.4366,106.4347l-.2088-22.3858,5.8456-.0544.2088,22.3857Z"></path><path class="cls-1" d="M177.6088,106.3213,177.4,83.9355l9.5507-.0887a9.6388,9.6388,0,0,1,2.7154.3363,5.1634,5.1634,0,0,1,2.15,1.2,5.6516,5.6516,0,0,1,1.4229,2.2926,11.369,11.369,0,0,1,.53,3.641,10.6346,10.6346,0,0,1-.2178,2.4119,6.4579,6.4579,0,0,1-.6324,1.7384,4.5552,4.5552,0,0,1-.9524,1.1993,7.6112,7.6112,0,0,1-1.1821.8546l3.9669,8.6408-5.935.0552-3.2055-7.6839c-.18.0022-.3669.0037-.5571.0052s-.3766.0037-.5578.0052-.3662.0038-.5571.0053-.3767.0037-.5571.0052l.0716,7.713Zm5.73-12.4078,2.6513-.0246a2.3832,2.3832,0,0,0,.842-.1432,1.481,1.481,0,0,0,.6131-.4422,1.8935,1.8935,0,0,0,.37-.7719,4.6191,4.6191,0,0,0,.11-1.1307,4.4238,4.4238,0,0,0-.1312-1.1134,1.5441,1.5441,0,0,0-.3834-.7048,1.5632,1.5632,0,0,0-.6212-.3707,2.6869,2.6869,0,0,0-.8442-.1126l-2.6513.0246Z"></path><path class="cls-1" d="M64.6491,143.7125a12.0144,12.0144,0,0,1-1.734-.1342,5.9517,5.9517,0,0,1-1.9644-.6444,4.1268,4.1268,0,0,1-1.5967-1.5669,5.7815,5.7815,0,0,1-.66-2.9317l-.1089-11.69a6.33,6.33,0,0,1,.4878-2.7162,4.4756,4.4756,0,0,1,1.3089-1.7153,5.07,5.07,0,0,1,1.8-.8913,7.7747,7.7747,0,0,1,1.9264-.2737q2.53-.0234,4.3547.0351t3.1644.1357q1.3413.0783,2.3671.19l.0455,4.9416-8.074.0753a1.7258,1.7258,0,0,0-1.141.3416,1.2277,1.2277,0,0,0-.3826.9979l.0171,1.8682,8.1068.226.0433,4.64-8.1009.3758.0157,1.6878a2.0607,2.0607,0,0,0,.1738.8875,1.0939,1.0939,0,0,0,.4721.5071,1.3422,1.3422,0,0,0,.6645.16l8.3148-.0776.0455,4.9409q-1.2931.1935-2.9488.3289t-3.3733.2125Q66.1564,143.698,64.6491,143.7125Z"></path><path class="cls-1" d="M79.9528,143.39l-.2088-22.3858,4.64-.0433,7.9793,12.4-.1163-12.4734,5.8448-.0545.2088,22.3858-4.64.0433-7.9793-12.4.1164,12.4727Z"></path><path class="cls-1" d="M104.6282,143.16l-.2088-22.3858,5.8448-.0552.0805,8.6169,6.6279-.0611-.0805-8.6169,5.8455-.0545.2088,22.3858-5.8455.0544-.08-8.5266-6.6279.0611.08,8.5267Z"></path><path class="cls-1" d="M127.7658,142.9436l6.42-22.4469,7.2916-.0687,6.8367,22.3247-6.0558.0559-.9375-3.5462-6.7189.0626-.84,3.5627Zm8.1433-8.8742,4.0072-.0373-2.1-8.5975Z"></path><path class="cls-1" d="M153.134,142.7072l-.2088-22.3858,4.64-.0433,7.9793,12.4-.1164-12.4734,5.8448-.0545.2088,22.3858-4.6395.0433-7.9793-12.4.1163,12.4726Z"></path><path class="cls-1" d="M185.4627,142.5864a11.8521,11.8521,0,0,1-3.4083-.42,5.5965,5.5965,0,0,1-2.6058-1.6333,8.0742,8.0742,0,0,1-1.69-3.4493,24.6486,24.6486,0,0,1-.6273-5.8694,22.4562,22.4562,0,0,1,.55-5.7292,8.3421,8.3421,0,0,1,1.67-3.4665,5.7517,5.7517,0,0,1,2.5909-1.7116,11.1425,11.1425,0,0,1,3.3084-.4982,24.6946,24.6946,0,0,1,3.3016.1656,20.0662,20.0662,0,0,1,2.4455.4445,11.04,11.04,0,0,1,1.6169.5265l.0417,4.55q-.5739-.1152-1.4789-.2274t-2.0651-.176q-1.1612-.0649-2.5163-.0523a6.1336,6.1336,0,0,0-1.73.2275,2.0105,2.0105,0,0,0-1.1224.854,4.7153,4.7153,0,0,0-.6,1.8585,21.1988,21.1988,0,0,0-.1656,3.24,24.9257,24.9257,0,0,0,.1783,3.0115,5.0639,5.0639,0,0,0,.5593,1.8779,2.1762,2.1762,0,0,0,1.1389.9539,5.3609,5.3609,0,0,0,1.9159.2685q2.29-.0213,3.7208-.11t2.2724-.2178l.0425,4.55a10.5337,10.5337,0,0,1-1.7578.528,20.468,20.468,0,0,1-2.3619.3543Q187.3313,142.5685,185.4627,142.5864Z"></path><path class="cls-1" d="M204.1732,142.4126a11.9274,11.9274,0,0,1-1.7339-.135,5.9331,5.9331,0,0,1-1.9637-.6436,4.1293,4.1293,0,0,1-1.5968-1.5677,5.7794,5.7794,0,0,1-.66-2.9317l-.1089-11.69a6.33,6.33,0,0,1,.4878-2.7162,4.4815,4.4815,0,0,1,1.3088-1.7153,5.0687,5.0687,0,0,1,1.8-.89,7.6958,7.6958,0,0,1,1.9257-.2737q2.5305-.0236,4.3547.0343t3.1651.1365q1.3414.0783,2.3672.1887l.0455,4.9416-8.074.0753a1.728,1.728,0,0,0-1.1418.3416,1.2291,1.2291,0,0,0-.3826.9979l.0172,1.8682,8.1075.226.0433,4.64-8.1016.3759.0156,1.6877a2.0611,2.0611,0,0,0,.1738.8875,1.0911,1.0911,0,0,0,.4721.5071,1.3414,1.3414,0,0,0,.6645.16l8.3156-.0776.0455,4.9409q-1.2931.1935-2.95.3289t-3.3732.2126Q205.68,142.3985,204.1732,142.4126Z"></path><path class="cls-1" d="M61.6107,179.7173l-.2088-22.3858,9.8221-.091a11.3046,11.3046,0,0,1,2.3515.2334A5.3312,5.3312,0,0,1,75.8,158.5084a5.4831,5.4831,0,0,1,1.649,2.3947,12.2582,12.2582,0,0,1,.6585,4.2883,12.9092,12.9092,0,0,1-.5623,4.3585,5.838,5.838,0,0,1-1.5438,2.4857,5.1243,5.1243,0,0,1-2.0838,1.1343,8.9941,8.9941,0,0,1-2.21.3058q-.5727.0057-1.191-.0485c-.4117-.0365-.8144-.0872-1.2067-.1551q-.5885-.1-1.0866-.2c-.3319-.0672-.6086-.1194-.83-.1589l.0634,6.7494ZM67.35,168.2745l3.374-.0313a1.317,1.317,0,0,0,.9464-.34,1.852,1.852,0,0,0,.4721-.9837,8.0287,8.0287,0,0,0,.1208-1.6131,6.2761,6.2761,0,0,0-.18-1.5654,1.97,1.97,0,0,0-.5056-.9442,1.253,1.253,0,0,0-.9069-.308l-3.374.0313Z"></path><path class="cls-1" d="M83.6952,179.5114l-.2088-22.3857,9.5507-.0888a9.6342,9.6342,0,0,1,2.7147.3364,5.1643,5.1643,0,0,1,2.1508,1.2,5.6518,5.6518,0,0,1,1.4223,2.2926,11.3509,11.3509,0,0,1,.531,3.641,10.5976,10.5976,0,0,1-.2186,2.4126,6.416,6.416,0,0,1-.6316,1.7377,4.5552,4.5552,0,0,1-.9524,1.1993,7.6251,7.6251,0,0,1-1.1829.8547l3.9677,8.6407-5.9351.0552-3.2061-7.6839c-.18.0022-.367.0037-.5571.0052-.1917.0023-.3767.0038-.5579.0052s-.3654.0038-.5564.0053-.3766.0037-.5571.0052l.0724,7.713Zm5.73-12.407,2.65-.0246a2.39,2.39,0,0,0,.8428-.1432,1.4854,1.4854,0,0,0,.613-.4423,1.9042,1.9042,0,0,0,.37-.7726,4.5921,4.5921,0,0,0,.11-1.1306,4.437,4.437,0,0,0-.13-1.1135,1.545,1.545,0,0,0-.3834-.7048,1.5648,1.5648,0,0,0-.6212-.3706,2.692,2.692,0,0,0-.845-.1127l-2.6506.0247Z"></path><path class="cls-1" d="M111.896,179.4294a12.0288,12.0288,0,0,1-1.734-.1342,5.948,5.948,0,0,1-1.9637-.6444,4.1268,4.1268,0,0,1-1.5967-1.5669,5.7808,5.7808,0,0,1-.66-2.9317l-.1089-11.69a6.336,6.336,0,0,1,.487-2.717,4.4874,4.4874,0,0,1,1.31-1.7146,5.0616,5.0616,0,0,1,1.7988-.8912,7.776,7.776,0,0,1,1.9264-.2737q2.53-.0234,4.3547.0351,1.8224.0582,3.1652.1357,1.3413.0783,2.3671.1894l.0455,4.9417-8.0747.0746a1.7334,1.7334,0,0,0-1.1418.3423,1.2275,1.2275,0,0,0-.3818.9979l.0171,1.8682,8.1075.2252.0433,4.64-8.1016.3766.0157,1.6878a2.05,2.05,0,0,0,.1738.8874,1.1,1.1,0,0,0,.4713.5072,1.3513,1.3513,0,0,0,.6645.16l8.3156-.0768.0463,4.9409q-1.2933.1923-2.95.3281t-3.3732.2133Q113.4033,179.4149,111.896,179.4294Z"></path><path class="cls-1" d="M132.3218,179.0587l-6.8367-22.3246,6.0551-.0559,4.398,15.9891,4.0989-16.0682,5.9962-.0559-6.42,22.4477Z"></path><path class="cls-1" d="M156.2156,179.0162a12.0144,12.0144,0,0,1-1.734-.1342,5.9517,5.9517,0,0,1-1.9644-.6444,4.1261,4.1261,0,0,1-1.5967-1.5669,5.7812,5.7812,0,0,1-.66-2.9317l-.1088-11.69a6.3358,6.3358,0,0,1,.487-2.7169,4.4874,4.4874,0,0,1,1.31-1.7146,5.0685,5.0685,0,0,1,1.8-.8912,7.77,7.77,0,0,1,1.9264-.2738q2.53-.0234,4.3547.0351,1.8224.0593,3.1651.1357,1.3413.0783,2.3664.1895l.0455,4.9416-8.074.0753a1.73,1.73,0,0,0-1.1418.3416,1.2276,1.2276,0,0,0-.3818.9979l.0171,1.8682,8.1076.226.0432,4.64-8.1015.3758.0156,1.6878a2.05,2.05,0,0,0,.1738.8875,1.1,1.1,0,0,0,.4713.5071,1.3519,1.3519,0,0,0,.6645.16l8.3149-.0776.0463,4.9409q-1.2921.1935-2.9489.3289t-3.3733.2125Q157.7229,179.0017,156.2156,179.0162Z"></path><path class="cls-1" d="M171.5186,178.6933l-.2088-22.3858,4.64-.0432,7.9793,12.4-.1164-12.4734,5.8448-.0552.2088,22.3858-4.6395.0432-7.9793-12.3988.1163,12.4727Z"></path><path class="cls-1" d="M200.6538,178.4218l-.16-17.1428-5.6345.0522-.0485-5.2429,17.113-.16.0485,5.2429-5.6337.0529.16,17.1429Z"></path><rect class="cls-1" x="156.8552" y="194.001" width="4.8008" height="10.6686"></rect><rect class="cls-1" x="98.198" y="194.001" width="4.8008" height="10.6686"></rect><rect class="cls-1" x="104.5826" y="194.001" width="4.8008" height="10.6686"></rect><rect class="cls-1" x="110.648" y="194.001" width="4.8008" height="10.6686"></rect><rect class="cls-1" x="163.2398" y="194.001" width="4.8008" height="10.6686"></rect><rect class="cls-1" x="169.3052" y="194.001" width="4.8008" height="10.6686"></rect><rect class="cls-1" x="117.4363" y="198.0184" width="37.0308" height="2.6337"></rect></g></g></svg>