<svg xmlns="http://www.w3.org/2000/svg" viewBox="0 0 356.6227 83.1579"><defs><style>.cls-1{fill:#fff;}.cls-2{fill:#00caca;}</style></defs><g id="Layer_2" data-name="Layer 2"><g id="Layer_1-2" data-name="Layer 1"><path class="cls-1" d="M2.5967,64.5351V14.24H24.6643a25.4175,25.4175,0,0,1,5.28.5753,11.962,11.962,0,0,1,4.9756,2.369A12.3441,12.3441,0,0,1,38.5752,22.6a27.5705,27.5705,0,0,1,1.3877,9.6464,29.0409,29.0409,0,0,1-1.3539,9.7813,13.0968,13.0968,0,0,1-3.52,5.5509,11.5008,11.5008,0,0,1-4.7047,2.5048,20.2,20.2,0,0,1-4.9754.643q-1.2865,0-2.6739-.1353t-2.7076-.3723q-1.32-.2368-2.4369-.4741t-1.8616-.3724V64.5351ZM15.729,38.9471h7.5817a2.9551,2.9551,0,0,0,2.1322-.7443,4.1336,4.1336,0,0,0,1.083-2.2,18.0539,18.0539,0,0,0,.3047-3.6214,14.167,14.167,0,0,0-.3724-3.52,4.4452,4.4452,0,0,0-1.1168-2.1325,2.8231,2.8231,0,0,0-2.0307-.7106H15.729Z"></path><path class="cls-1" d="M45.4459,64.5351V14.24H58.5782V33.6H73.4706V14.24H86.6029V64.5351H73.4706V45.378H58.5782V64.5351Z"></path><path class="cls-1" d="M105.2175,64.5351V50.2519L90.6637,14.24H104.27l7.7846,22.6091L119.839,14.24h13.0647L118.35,50.2519V64.5351Z"></path><path class="cls-1" d="M152.7366,64.941q-2.2338,0-4.3661-.1353T144.1737,64.4q-2.0658-.27-3.96-.6094-1.8958-.3376-3.6553-.8124V52.5537q2.3.203,4.9754.3383,2.6731.1368,5.4153.203,2.7417.0684,5.1109.0676a17.123,17.123,0,0,0,3.7232-.3383,4.507,4.507,0,0,0,2.2337-1.083,2.7448,2.7448,0,0,0,.7447-2.0307v-.8124a2.5619,2.5619,0,0,0-1.0492-2.2342,4.1644,4.1644,0,0,0-2.4707-.7442h-3.5879q-7.8534,0-11.914-3.4526t-4.0614-11.5754V28.6581q0-7.446,4.4676-11.1354t12.8617-3.69a55.7207,55.7207,0,0,1,5.9907.3047q2.8081.3045,5.28.7448,2.47.4412,4.4341.9141V26.2209q-3.1145-.2691-7.0063-.44-3.8932-.1677-7.074-.1689a19.0865,19.0865,0,0,0-3.3846.2707,4.2347,4.2347,0,0,0-2.3013,1.083,3.21,3.21,0,0,0-.8124,2.37v.6766a3.1181,3.1181,0,0,0,1.083,2.5724,5.1991,5.1991,0,0,0,3.317.88h4.4676a15.7539,15.7539,0,0,1,7.8863,1.7937,11.7339,11.7339,0,0,1,4.7383,4.8738,15.0579,15.0579,0,0,1,1.591,7.0063v2.2337q0,6.432-2.234,9.8154a10.964,10.964,0,0,1-6.363,4.57A36.1925,36.1925,0,0,1,152.7366,64.941Z"></path><path class="cls-1" d="M177.3758,64.5351V14.24h13.1323V64.5351Z"></path><path class="cls-1" d="M218.1935,64.941a37.4234,37.4234,0,0,1-9.3755-1.0489,14.464,14.464,0,0,1-6.7355-3.7572,16.931,16.931,0,0,1-4.0614-7.7506,51.5647,51.5647,0,0,1-1.3539-13.0308,51.5755,51.5755,0,0,1,1.3539-13.0308,16.944,16.944,0,0,1,4.0614-7.751,14.4825,14.4825,0,0,1,6.7355-3.7568,42.4049,42.4049,0,0,1,18.7508,0,14.4916,14.4916,0,0,1,6.7354,3.7568,16.962,16.962,0,0,1,4.0615,7.751A51.6171,51.6171,0,0,1,239.72,39.3535a51.6062,51.6062,0,0,1-1.3539,13.0308,16.949,16.949,0,0,1-4.0615,7.7506,14.473,14.473,0,0,1-6.7354,3.7572A37.434,37.434,0,0,1,218.1935,64.941Zm0-11.7784a12.1446,12.1446,0,0,0,4.1968-.6089,4.9365,4.9365,0,0,0,2.5386-2.0989,10.9767,10.9767,0,0,0,1.286-4.1967,52.4457,52.4457,0,0,0,.3724-6.9046,54.4341,54.4341,0,0,0-.3724-7.1076,10.6745,10.6745,0,0,0-1.286-4.1631,4.6542,4.6542,0,0,0-2.5386-1.9972,16.4126,16.4126,0,0,0-8.36,0,4.6476,4.6476,0,0,0-2.5722,1.9972,10.6575,10.6575,0,0,0-1.2863,4.1631,54.2779,54.2779,0,0,0-.3723,7.1076,52.2922,52.2922,0,0,0,.3723,6.9046,10.9589,10.9589,0,0,0,1.2863,4.1967,4.9216,4.9216,0,0,0,2.5722,2.0989A12.2012,12.2012,0,0,0,218.1935,53.1626Z"></path><path class="cls-2" d="M246.6916,64.5351l6.0245-38.1107a15.17,15.17,0,0,1,3.08-7.514,11.9016,11.9016,0,0,1,5.3138-3.6555,19.163,19.163,0,0,1,6.0922-1.0153q6.0926,0,10.9324.2706t9.6462.8124l-1.76,11.1018H269.3686a3.8455,3.8455,0,0,0-2.9784.9813,5.1918,5.1918,0,0,0-1.151,2.7414l-.8123,5.3479,16.7878.6094-1.6922,10.4243-16.9232.6771-2.7754,17.3293Z"></path><path class="cls-2" d="M285.4112,64.5351,293.3988,14.24h13.1323l-7.9876,50.2955Z"></path><path class="cls-2" d="M302.807,64.5351l21.594-28.2277L329.41,47.3411l-12.1169,17.194Zm31.274,0L324.6716,43.889,310.5239,14.24h14.2833l9.8153,21.3231,13.6738,28.9724Zm.3385-21.3908-4.9417-10.8984L342.1365,14.24h14.4862Z"></path><path class="cls-1" d="M86.0748,81.7248l-.0738-7.9363,5.8678-.0547a3.72,3.72,0,0,1,1.2335.1876,3.082,3.082,0,0,1,.9928.5432,2.58,2.58,0,0,1,.6643.8326,2.3881,2.3881,0,0,1,.2483,1.0657,2.1668,2.1668,0,0,1-.4114,1.3705,2.8788,2.8788,0,0,1-1.1478.9174l2.05,2.9862-2.661.0249-1.8724-2.69-2.3822.022.0252,2.7074Zm5.5814-4.598a.7042.7042,0,0,0,.5847-.2471.8148.8148,0,0,0,.1809-.536.8535.8535,0,0,0-.2082-.5321.7066.7066,0,0,0-.5835-.2371l-3.079.0288.0144,1.5523Z"></path><path class="cls-1" d="M97.9224,73.69l8.7728-.0821.0173,1.8508-6.24.0585.0108,1.1675,5.5425-.0518.0177,1.9-5.5425.0518.0108,1.1545,6.24-.0585.0173,1.8508-8.7728.082Z"></path><path class="cls-1" d="M109.6739,81.505,109.6,73.5687l5.8678-.0547a3.7308,3.7308,0,0,1,1.2335.1872,3.0809,3.0809,0,0,1,.9928.5437,2.5771,2.5771,0,0,1,.6644.832,2.39,2.39,0,0,1,.2483,1.0662,2.2829,2.2829,0,0,1-.2287,1.0456,2.4775,2.4775,0,0,1-.649.82,3.0337,3.0337,0,0,1-.9825.537,3.9,3.9,0,0,1-1.2185.1977l-3.3463.0312.0252,2.7073Zm5.5814-4.5979a.7035.7035,0,0,0,.5847-.2476.8135.8135,0,0,0,.1809-.5355.8528.8528,0,0,0-.2083-.5322.7049.7049,0,0,0-.5835-.237l-3.0789.0287.0144,1.5524Z"></path><path class="cls-1" d="M118.8184,81.42l5.0967-7.9718,1.441-.0134,5.2446,7.8758-2.7076.0249-.6723-1.0494-5.0427.047-.6524,1.0619Zm4.5279-2.9357,2.6725-.025-1.3561-2.1113Z"></path><path class="cls-1" d="M135.4227,81.2651l-2.5329.0235-.0739-7.9238,2.5329-.0235Z"></path><path class="cls-1" d="M138.56,81.2358,138.4863,73.3l5.8678-.0548a3.7032,3.7032,0,0,1,1.2332.1872,3.0825,3.0825,0,0,1,.9929.5437,2.5738,2.5738,0,0,1,.6643.832,2.39,2.39,0,0,1,.2483,1.0662,2.1683,2.1683,0,0,1-.4114,1.37,2.8779,2.8779,0,0,1-1.1478.917l2.05,2.9866-2.661.0249-1.8724-2.69-2.3822.0221.0252,2.7073Zm5.5814-4.5979a.7033.7033,0,0,0,.5846-.2476.8136.8136,0,0,0,.181-.5355.8528.8528,0,0,0-.2083-.5322.7052.7052,0,0,0-.5835-.237l-3.0792.0287.0144,1.5524Z"></path><path class="cls-1" d="M156.3943,82.1379,156.312,72.09l1.4988-.0144.0936,10.0476Z"></path><path class="cls-1" d="M166.5117,73.051l8.7726-.0821.0173,1.8508-6.24.0581.0108,1.1675,5.5425-.0514.0178,1.9-5.5425.0514.0108,1.1545,6.2394-.0581.0173,1.8508-8.7726.0821Z"></path><path class="cls-1" d="M178.2632,80.8658l-.0739-7.9237,2.1032-.02,5.0037,4.4876-.0423-4.5337,2.5447-.024.0739,7.9238-2.103.02-5.0154-4.4866.0423,4.5331Z"></path><path class="cls-1" d="M191.01,80.7468l-.0739-7.9237,2.5329-.0236.0293,3.13,4.66-.0432-.0293-3.13,2.5447-.024.0739,7.9237-2.5447.024-.0269-2.8935-4.6595.0432.0268,2.8935Z"></path><path class="cls-1" d="M203.2682,80.6326l5.0968-7.9717,1.441-.0135,5.2445,7.8753-2.7076.0255-.6722-1.0495-5.0428.0471-.6523,1.0619Zm4.5279-2.9357,2.6725-.025-1.356-2.1113Z"></path><path class="cls-1" d="M217.223,80.5026l-.0739-7.9238,2.1032-.02,5.0036,4.4876-.0422-4.5336,2.5449-.024.0739,7.9238-2.1032.02-5.0154-4.4866.0422,4.5332Z"></path><path class="cls-1" d="M235.2047,72.2736a7.2353,7.2353,0,0,1,2.881.52,5.7933,5.7933,0,0,1,2.2056,1.632l-1.7788,1.1468a6.0089,6.0089,0,0,0-.4693-.4611,3.8482,3.8482,0,0,0-.6665-.4722,4.2208,4.2208,0,0,0-.8925-.37,3.9291,3.9291,0,0,0-1.1576-.1449,4.3589,4.3589,0,0,0-1.0967.1535,3.3589,3.3589,0,0,0-.9895.4376,2.4442,2.4442,0,0,0-.714.7145,1.72,1.72,0,0,0-.27.9712,1.69,1.69,0,0,0,.2939.9665,2.4781,2.4781,0,0,0,.7385.701,3.454,3.454,0,0,0,1.0034.4185,4.3573,4.3573,0,0,0,1.0991.1329,4.23,4.23,0,0,0,1.1955-.16,4.1427,4.1427,0,0,0,.8738-.3743,3.3184,3.3184,0,0,0,.6406-.4779c.1764-.1708.3376-.3325.4835-.4823L240.3276,78.3a5.7824,5.7824,0,0,1-2.2042,1.6348,8.0978,8.0978,0,0,1-4.8552.275,5.9289,5.9289,0,0,1-1.7732-.7716,4.2973,4.2973,0,0,1-1.2728-1.274,3.2176,3.2176,0,0,1-.4986-1.7524,3.3213,3.3213,0,0,1,.4427-1.75,4.1182,4.1182,0,0,1,1.208-1.297,5.6834,5.6834,0,0,1,1.7531-.8047A8.0183,8.0183,0,0,1,235.2047,72.2736Z"></path><path class="cls-1" d="M243.0608,72.3375l8.7729-.0821.0172,1.8508-6.24.0585.0108,1.1675,5.5425-.0518.0178,1.9-5.5425.0518.0107,1.1545,6.24-.0585.0173,1.8508-8.7729.082Z"></path><path class="cls-1" d="M260.7248,81.1653l-.0823-10.0476,1.4991-.0139.0938,10.0475Z"></path><path class="cls-1" d="M270.9164,80.0021l-.0739-7.9362,5.8678-.0547a3.7276,3.7276,0,0,1,1.2332.1871,3.09,3.09,0,0,1,.9928.5437,2.5781,2.5781,0,0,1,.6644.832,2.39,2.39,0,0,1,.2483,1.0663,2.2837,2.2837,0,0,1-.2286,1.0455,2.48,2.48,0,0,1-.649.82,3.0283,3.0283,0,0,1-.9825.537,3.8892,3.8892,0,0,1-1.2184.1977l-3.3464.0312.0251,2.7073Zm5.5813-4.5979a.7045.7045,0,0,0,.5847-.2471.8161.8161,0,0,0,.1807-.536.8541.8541,0,0,0-.208-.5322.7053.7053,0,0,0-.5835-.237l-3.0792.0288.0144,1.5523Z"></path><path class="cls-1" d="M282.6868,79.8927l-.0739-7.9362,5.8679-.0548a3.7032,3.7032,0,0,1,1.2332.1872,3.08,3.08,0,0,1,.9928.5432,2.58,2.58,0,0,1,.6644.8325A2.3882,2.3882,0,0,1,291.62,74.53a2.1664,2.1664,0,0,1-.4115,1.37,2.8783,2.8783,0,0,1-1.1478.9175l2.05,2.9866-2.661.0245-1.8723-2.69-2.3823.0221.0252,2.7073Zm5.5814-4.5984a.7042.7042,0,0,0,.5847-.2471.8152.8152,0,0,0,.1809-.536.854.854,0,0,0-.2082-.5322.7065.7065,0,0,0-.5835-.2365l-3.0792.0283.0144,1.5523Z"></path><path class="cls-1" d="M294.5346,71.8576l8.7726-.0816.0173,1.8508-6.24.0581.0108,1.1674,5.5425-.0518.0177,1.9-5.5425.0519.0108,1.1545,6.24-.0581.0173,1.8508-8.7726.0816Z"></path><path class="cls-1" d="M305.7938,71.7525l2.9048-.0269,3.2174,4.8019,3.1269-4.8609,2.9048-.0273-5.2827,7.9736-1.4407.0135Z"></path><path class="cls-1" d="M320.4458,71.6162l8.7729-.082.0172,1.8508-6.24.0585.0108,1.167,5.5425-.0513.0178,1.9-5.5425.0513.0107,1.1545,6.24-.058.0173,1.8508-8.7729.082Z"></path><path class="cls-1" d="M332.1971,79.4311l-.0739-7.9238,2.1032-.02,5.0036,4.4876-.0422-4.5336,2.5449-.024.0739,7.9237-2.1032.02-5.0154-4.4866.0422,4.5332Z"></path><path class="cls-1" d="M354.3979,71.3l.0172,1.8508-3.66.0341.0566,6.073-2.5328.024-.0567-6.073-3.66.034-.0172-1.8507Z"></path><path class="cls-2" d="M9.8532.2289,9.8705,2.08l-3.66.034.0566,6.073L3.734,8.21,3.6773,2.1373l-3.66.034L0,.3205Z"></path><path class="cls-2" d="M12.8319,8.1258,12.758.202,15.2912.178l.0292,3.13L19.98,3.2644l-.0293-3.13L22.4954.1113l.0739,7.9238-2.5449.0235-.0269-2.894-4.6593.0432.0269,2.894Z"></path><path class="cls-2" d="M25.6324.0821,34.4053,0l.0173,1.8508-6.24.058.0108,1.167,5.5428-.0513.0175,1.9-5.5425.0513.0108,1.155,6.24-.058.0173,1.8508-8.7729.082Z"></path><rect class="cls-2" x="39.4262" y="1.8467" width="316.7445" height="4.549"></rect><rect class="cls-2" x="2.96" y="72.2447" width="4.9109" height="10.9132"></rect><rect class="cls-2" x="9.491" y="72.2447" width="4.9109" height="10.9132"></rect><rect class="cls-2" x="15.6955" y="72.2447" width="4.9109" height="10.9132"></rect><rect class="cls-2" x="62.9622" y="72.2447" width="4.9109" height="10.9132"></rect><rect class="cls-2" x="69.4932" y="72.2447" width="4.9109" height="10.9132"></rect><rect class="cls-2" x="75.6977" y="72.2447" width="4.9109" height="10.9132"></rect><rect class="cls-2" x="22.6394" y="76.3543" width="37.88" height="2.6941"></rect></g></g></svg>