<svg xmlns="http://www.w3.org/2000/svg" viewBox="0 0 365.0119 62.0759"><defs><style>.cls-1{fill:#34cacb;}</style></defs><g id="Layer_2" data-name="Layer 2"><g id="Layer_1-2" data-name="Layer 1"><path class="cls-1" d="M0,23.8288a4.06,4.06,0,0,1,1.9642-.2157c6.5586-.01,13.1177-.0492,19.6754.0259A2.5086,2.5086,0,0,0,24.3888,21.74c2.6035-6.6948,5.3069-13.3508,7.9829-20.0173A3.9583,3.9583,0,0,1,33.2992,0c.6432.3635.7378,1.076.9732,1.66,2.7265,6.7691,5.4611,13.5352,8.1205,20.3308a2.203,2.203,0,0,0,2.4,1.6383c6.6723-.05,13.3452-.0286,20.0179-.0119.5955.0015,1.2436-.1974,1.8155.2554-.1265.7552-.8208.9112-1.3039,1.2351-6.11,4.0968-12.22,8.1939-18.3694,12.2314a1.6868,1.6868,0,0,0-.8,2.4711c2.75,6.6977,5.4019,13.4357,8.0846,20.161.2489.624.4786,1.2557.7689,2.02-.9366.1339-1.399-.4457-1.9165-.7888-6.0361-4.002-12.0808-7.9922-18.0651-12.0707a2.4988,2.4988,0,0,0-3.3195-.0407C25.726,53.1781,19.6755,57.16,13.6434,61.1679a3.9338,3.9338,0,0,1-1.7078.908c-.3316-.738.1956-1.3088.4192-1.8746,2.6607-6.7339,5.3139-13.4717,8.0846-20.1606.5867-1.4162.2737-2.0691-.9373-2.86-6.0644-3.9585-12.0728-8.0028-18.09-12.0324C.9143,24.8157.26,24.6276,0,23.8288Z"></path><path class="cls-1" d="M74.5965,23.8288a4.06,4.06,0,0,1,1.9642-.2157c6.5586-.01,13.1177-.0492,19.6755.0259A2.5085,2.5085,0,0,0,98.9853,21.74c2.6036-6.6948,5.3069-13.3508,7.983-20.0173A3.9581,3.9581,0,0,1,107.8957,0c.6433.3635.7378,1.076.9732,1.66,2.7265,6.7691,5.4612,13.5352,8.1205,20.3308a2.203,2.203,0,0,0,2.4,1.6383c6.6723-.05,13.3452-.0286,20.0178-.0119.5956.0015,1.2437-.1974,1.8155.2554-.1265.7552-.8208.9112-1.3039,1.2351-6.11,4.0968-12.22,8.1939-18.3693,12.2314a1.6867,1.6867,0,0,0-.8,2.4711c2.75,6.6977,5.4018,13.4357,8.0846,20.161.2489.624.4785,1.2557.7688,2.02-.9366.1339-1.3989-.4457-1.9165-.7888-6.0361-4.002-12.0807-7.9922-18.065-12.0707a2.4989,2.4989,0,0,0-3.32-.0407C100.3226,53.1781,94.2721,57.16,88.24,61.1679a3.9342,3.9342,0,0,1-1.7079.908c-.3316-.738.1956-1.3088.4192-1.8746,2.6608-6.7339,5.3139-13.4717,8.0847-20.1606.5866-1.4162.2737-2.0691-.9374-2.86-6.0643-3.9585-12.0727-8.0028-18.0905-12.0324C75.5108,24.8157,74.8566,24.6276,74.5965,23.8288Z"></path><path class="cls-1" d="M149.1931,23.8288a4.06,4.06,0,0,1,1.9642-.2157c6.5586-.01,13.1177-.0492,19.6754.0259a2.5086,2.5086,0,0,0,2.7492-1.8993c2.6035-6.6948,5.3068-13.3508,7.9829-20.0173A3.9591,3.9591,0,0,1,182.4922,0c.6433.3635.7379,1.076.9733,1.66,2.7265,6.7691,5.4611,13.5352,8.12,20.3308a2.2032,2.2032,0,0,0,2.4,1.6383c6.6723-.05,13.3452-.0286,20.0179-.0119.5955.0015,1.2436-.1974,1.8154.2554-.1264.7552-.8208.9112-1.3039,1.2351-6.11,4.0968-12.22,8.1939-18.3693,12.2314a1.6868,1.6868,0,0,0-.8,2.4711c2.75,6.6977,5.4019,13.4357,8.0846,20.161.2489.624.4785,1.2557.7688,2.02-.9365.1339-1.3989-.4457-1.9164-.7888-6.0361-4.002-12.0808-7.9922-18.0651-12.0707a2.4988,2.4988,0,0,0-3.32-.0407c-5.9786,4.0868-12.0291,8.0684-18.0612,12.0766a3.9338,3.9338,0,0,1-1.7078.908c-.3316-.738.1956-1.3088.4191-1.8746,2.6608-6.7339,5.314-13.4717,8.0847-20.1606.5867-1.4162.2737-2.0691-.9373-2.86-6.0644-3.9585-12.0728-8.0028-18.09-12.0324C150.1074,24.8157,149.4532,24.6276,149.1931,23.8288Z"></path><path class="cls-1" d="M223.79,23.8288a4.06,4.06,0,0,1,1.9642-.2157c6.5586-.01,13.1177-.0492,19.6755.0259a2.5085,2.5085,0,0,0,2.7491-1.8993c2.6035-6.6948,5.3069-13.3508,7.983-20.0173A3.957,3.957,0,0,1,257.0888,0c.6433.3635.7378,1.076.9732,1.66,2.7265,6.7691,5.4612,13.5352,8.12,20.3308a2.203,2.203,0,0,0,2.4,1.6383c6.6723-.05,13.3452-.0286,20.0178-.0119.5956.0015,1.2437-.1974,1.8155.2554-.1265.7552-.8208.9112-1.3039,1.2351-6.11,4.0968-12.22,8.1939-18.3693,12.2314a1.6867,1.6867,0,0,0-.8,2.4711c2.75,6.6977,5.4018,13.4357,8.0846,20.161.2489.624.4785,1.2557.7688,2.02-.9366.1339-1.399-.4457-1.9165-.7888-6.0361-4.002-12.0807-7.9922-18.0651-12.0707a2.4988,2.4988,0,0,0-3.3195-.0407c-5.9785,4.0868-12.029,8.0684-18.0611,12.0766a3.9342,3.9342,0,0,1-1.7079.908c-.3316-.738.1956-1.3088.4192-1.8746,2.6608-6.7339,5.3139-13.4717,8.0847-20.1606.5866-1.4162.2737-2.0691-.9374-2.86-6.0643-3.9585-12.0727-8.0028-18.09-12.0324C224.7039,24.8157,224.05,24.6276,223.79,23.8288Z"></path><path class="cls-1" d="M298.3862,23.8288a4.0593,4.0593,0,0,1,1.9641-.2157c6.5586-.01,13.1178-.0492,19.6755.0259A2.5086,2.5086,0,0,0,322.775,21.74c2.6035-6.6948,5.3068-13.3508,7.9829-20.0173A3.9581,3.9581,0,0,1,331.6853,0c.6433.3635.7379,1.076.9732,1.66,2.7266,6.7691,5.4612,13.5352,8.12,20.3308a2.2032,2.2032,0,0,0,2.4,1.6383c6.6723-.05,13.3452-.0286,20.0178-.0119.5956.0015,1.2437-.1974,1.8155.2554-.1264.7552-.8208.9112-1.3039,1.2351-6.11,4.0968-12.22,8.1939-18.3693,12.2314a1.6868,1.6868,0,0,0-.8,2.4711c2.75,6.6977,5.4018,13.4357,8.0846,20.161.2489.624.4785,1.2557.7688,2.02-.9365.1339-1.3989-.4457-1.9164-.7888-6.0361-4.002-12.0808-7.9922-18.0651-12.0707a2.4988,2.4988,0,0,0-3.32-.0407c-5.9786,4.0868-12.0291,8.0684-18.0612,12.0766a3.9338,3.9338,0,0,1-1.7078.908c-.3317-.738.1956-1.3088.4191-1.8746,2.6608-6.7339,5.314-13.4717,8.0847-20.1606.5866-1.4162.2737-2.0691-.9373-2.86-6.0644-3.9585-12.0728-8.0028-18.0905-12.0324C299.3005,24.8157,298.6462,24.6276,298.3862,23.8288Z"></path></g></g></svg>